<svg width="48" height="48" viewBox="0 0 48 48" fill="none" xmlns="http://www.w3.org/2000/svg">
<rect x="0.75" y="0.75" width="46.5" height="46.5" rx="23.25" stroke="white" stroke-width="1.5"/>
<path d="M14 18C14 15.7909 15.7909 14 18 14C20.2091 14 22 15.7909 22 18V22H18C15.7909 22 14 20.2091 14 18Z" fill="white"/>
<path d="M26 18C26 15.7909 27.7909 14 30 14C32.2091 14 34 15.7909 34 18C34 20.2091 32.2091 22 30 22H26V18Z" fill="white"/>
<path d="M14 30C14 27.7909 15.7909 26 18 26H22V30C22 32.2091 20.2091 34 18 34C15.7909 34 14 32.2091 14 30Z" fill="white"/>
<path d="M26 26H30C32.2091 26 34 27.7909 34 30C34 32.2091 32.2091 34 30 34C27.7909 34 26 32.2091 26 30V26Z" fill="white"/>
</svg>
