<svg width="20" height="24" viewBox="0 0 20 24" fill="none" xmlns="http://www.w3.org/2000/svg">
<path d="M19.1462 8.18073C18.3617 8.66103 17.7119 9.33251 17.2575 10.1323C16.8032 10.9321 16.5593 11.8342 16.5485 12.7539C16.5516 13.7892 16.8583 14.8007 17.4306 15.6633C18.0029 16.526 18.8157 17.2017 19.7683 17.607C19.3927 18.8188 18.8369 19.9671 18.1195 21.0134C17.0929 22.4912 16.0195 23.9688 14.3863 23.9688C12.7532 23.9688 12.3331 23.02 10.451 23.02C8.6155 23.02 7.96216 24 6.46888 24C4.9756 24 3.93354 22.6311 2.73576 20.9512C1.15357 18.5979 0.284022 15.838 0.231445 13.0027C0.231445 8.33631 3.26469 5.86317 6.2511 5.86317C7.83776 5.86317 9.15994 6.90523 10.1555 6.90523C11.1043 6.90523 12.5821 5.80082 14.3863 5.80082C15.314 5.77689 16.2334 5.98143 17.0634 6.39645C17.8934 6.81146 18.6087 7.42421 19.1462 8.18073ZM13.5309 3.82544C14.3263 2.88981 14.7765 1.70959 14.8064 0.481945C14.8077 0.320106 14.7921 0.158572 14.7597 0C13.3935 0.133459 12.1301 0.78463 11.2287 1.81995C10.4257 2.7183 9.95847 3.867 9.90651 5.07082C9.90711 5.21723 9.92276 5.36318 9.9532 5.50638C10.0609 5.52674 10.1703 5.53718 10.2799 5.53756C10.9095 5.48745 11.5224 5.30984 12.0813 5.01552C12.6402 4.72119 13.1334 4.3163 13.5309 3.82544Z" fill="white"/>
</svg>
