<svg width="272" height="50" viewBox="0 0 272 50" fill="none" xmlns="http://www.w3.org/2000/svg">
<path d="M15.1348 33.3398C16.248 34.6758 17.9941 35.3438 20.373 35.3438C22.5996 35.3438 24.9082 34.9688 27.2988 34.2188C28.084 33.9727 28.6641 33.8496 29.0391 33.8496C29.7188 33.8496 30.0586 34.043 30.0586 34.4297C30.0586 34.9922 29.6133 35.5957 28.7227 36.2402C27.832 36.873 26.707 37.4414 25.3477 37.9453C23.9883 38.4492 22.4473 38.8652 20.7246 39.1934C19.0137 39.5332 17.3848 39.7031 15.8379 39.7031C13.0957 39.7031 10.6816 39.2754 8.5957 38.4199C6.50977 37.5645 4.89258 36.3457 3.74414 34.7637C2.5957 33.1699 2.02148 31.4355 2.02148 29.5605C2.02148 27.6738 2.33789 25.9336 2.9707 24.3398C3.60352 22.7344 4.45898 21.2871 5.53711 19.998C6.62695 18.709 7.89258 17.5137 9.33398 16.4121C10.7871 15.3105 12.3164 14.3906 13.9219 13.6523C17.3555 12.082 20.6484 11.2969 23.8008 11.2969C26.9531 11.2969 29.4023 11.9473 31.1484 13.248C32.8945 14.5371 33.7676 16.1191 33.7676 17.9941C33.7676 20.0332 33.1641 21.8203 31.957 23.3555C31.3828 24.1055 30.6152 24.7031 29.6543 25.1484C28.7051 25.5938 27.6328 25.8164 26.4375 25.8164C25.6406 25.8164 24.9609 25.7051 24.3984 25.4824C23.332 25.0605 22.7988 24.457 22.7988 23.6719C22.7988 23.4023 23.1035 22.6406 23.7129 21.3867C24.334 20.1328 24.9551 18.8438 25.5762 17.5195C26.1973 16.1836 26.5078 15.2695 26.5078 14.7773C26.5078 14.2734 26.2969 13.9277 25.875 13.7402C25.4531 13.5527 24.8496 13.459 24.0645 13.459C23.291 13.459 22.4121 13.7578 21.4277 14.3555C20.4434 14.9414 19.4941 15.75 18.5801 16.7812C17.666 17.8008 16.8281 18.9375 16.0664 20.1914C15.3047 21.4453 14.6953 22.8047 14.2383 24.2695C13.7812 25.7227 13.5527 27.0293 13.5527 28.1895C13.5527 29.3496 13.6816 30.3398 13.9395 31.1602C14.209 31.9805 14.6074 32.707 15.1348 33.3398ZM42.1875 12.9668L50.2383 12.9141C50.5078 12.9141 50.7246 13.002 50.8887 13.1777C51.0645 13.3418 51.1523 13.6172 51.1523 14.0039C51.1523 14.3906 50.9121 15.5273 50.4316 17.4141C49.9512 19.2891 49.4121 21.1289 48.8145 22.9336C50.3496 22.2773 52.0488 21.6855 53.9121 21.1582C55.7754 20.6191 57.4512 20.3496 58.9395 20.3496C60.0645 20.3496 61.0898 20.6602 62.0156 21.2812C63.0469 21.9727 63.5625 23.0215 63.5625 24.4277C63.5625 25.8223 63.0176 27.7031 61.9277 30.0703C60.8379 32.4375 60.293 33.9492 60.293 34.6055C60.293 35.5664 60.7559 36.0469 61.6816 36.0469C63.5098 36.0469 65.5781 35.4551 67.8867 34.2715C68.2383 34.084 68.5254 33.9902 68.748 33.9902C69.2285 33.9902 69.4688 34.207 69.4688 34.6406C69.4688 35.0625 69.1992 35.4434 68.6602 35.7832C68.1328 36.1113 67.4648 36.4688 66.6562 36.8555C65.8477 37.2305 64.834 37.6465 63.6152 38.1035C60.7676 39.1699 57.7266 39.7031 54.4922 39.7031C51.2578 39.7031 49.6406 38.9062 49.6406 37.3125C49.6406 36.2812 50.2266 34.4414 51.3984 31.793C52.582 29.1328 53.1738 27.3398 53.1738 26.4141C53.1738 25.3008 52.3594 24.7441 50.7305 24.7441C49.8281 24.7441 48.9375 24.8848 48.0586 25.166C46.125 30.8379 44.7363 35.2852 43.8926 38.5078C43.834 38.7305 43.6992 38.8945 43.4883 39C43.2891 39.1055 43.1133 39.1582 42.9609 39.1582L33.9082 39.3516C33.7793 39.3516 33.6328 39.2695 33.4688 39.1055C33.3164 38.9531 33.2402 38.7598 33.2402 38.5254C33.2402 38.291 33.6152 37.1133 34.3652 34.9922C35.127 32.8711 35.959 30.5684 36.8613 28.084C37.7754 25.5996 38.6074 23.0156 39.3574 20.332C40.1191 17.6484 40.5 15.6504 40.5 14.3379L40.4824 13.8457C40.4824 13.2598 41.0508 12.9668 42.1875 12.9668ZM79.8926 35.2383C82.0957 35.2383 83.9355 33.5508 85.4121 30.1758C86.0918 28.6289 86.4316 27.375 86.4316 26.4141C86.4316 25.4531 86.2676 24.791 85.9395 24.4277C85.623 24.0645 84.9902 23.8828 84.041 23.8828C83.1035 23.8828 82.084 24.3223 80.9824 25.2012C79.8926 26.0684 79.0137 27.1641 78.3457 28.4883C77.6777 29.8125 77.3438 31.0078 77.3438 32.0742C77.3438 33.1289 77.5781 33.9199 78.0469 34.4473C78.5156 34.9746 79.1309 35.2383 79.8926 35.2383ZM89.0332 20.3496L97.084 20.7188C97.3887 20.7188 97.6172 20.8125 97.7695 21C97.9219 21.1758 97.998 21.375 97.998 21.5977C97.998 22.4531 97.6406 23.8184 96.9258 25.6934C96.2227 27.5566 95.5137 29.4082 94.7988 31.248C94.0957 33.0762 93.7441 34.2891 93.7441 34.8867C93.7441 35.4727 93.832 35.8477 94.0078 36.0117C94.1953 36.1758 94.5469 36.2578 95.0625 36.2578C95.5781 36.2578 96.5156 36.0117 97.875 35.5195C99.2461 35.0156 100.172 34.6348 100.652 34.377C101.145 34.1191 101.52 33.9902 101.777 33.9902C102.234 33.9902 102.463 34.1953 102.463 34.6055C102.463 35.4727 100.705 36.6094 97.1895 38.0156C96.0059 38.4961 94.5762 38.8945 92.9004 39.2109C91.2363 39.5391 89.543 39.7031 87.8203 39.7031C84.9492 39.7031 83.2207 38.7891 82.6348 36.9609C80.8066 38.7891 78.3457 39.7031 75.252 39.7031C73.1309 39.7031 71.3379 39.1934 69.873 38.1738C68.2793 37.0605 67.4824 35.3086 67.4824 32.918C67.4824 30.3984 68.2266 28.0781 69.7148 25.957C71.3438 23.6016 73.5234 21.9785 76.2539 21.0879C77.7656 20.5957 79.3887 20.3496 81.123 20.3496C83.7832 20.3496 85.8516 21.0059 87.3281 22.3184C87.3398 22.248 87.3457 22.1367 87.3457 21.9844L87.3281 21.2285C87.3281 20.6426 87.8965 20.3496 89.0332 20.3496ZM116.543 21.1055L121.166 20.5078C122.033 20.5078 122.467 20.8477 122.467 21.5273C122.467 22.207 122.057 22.6348 121.236 22.8105C120.416 22.9746 118.564 23.1973 115.682 23.4785C115.283 24.5215 114.686 25.9688 113.889 27.8203C112.26 31.6172 111.445 33.8965 111.445 34.6582C111.445 35.4902 111.961 35.9062 112.992 35.9062C116.32 35.9062 119.309 35.3496 121.957 34.2363C122.344 34.0723 122.648 33.9902 122.871 33.9902C123.305 33.9902 123.521 34.1836 123.521 34.5703C123.521 34.957 123.24 35.3379 122.678 35.7129C120.955 36.8496 118.359 37.7988 114.891 38.5605C111.422 39.3223 108.223 39.7031 105.293 39.7031C103.629 39.7031 102.357 39.4453 101.479 38.9297C100.6 38.4023 100.16 37.6816 100.16 36.7676C100.16 35.8418 100.77 34.1133 101.988 31.582C103.359 28.7461 104.344 26.2559 104.941 24.1113C104.215 24.1465 103.711 24.1641 103.43 24.1641C102.738 24.1641 102.393 23.8828 102.393 23.3203C102.393 22.9102 102.504 22.6348 102.727 22.4941C102.949 22.3535 103.178 22.2539 103.412 22.1953C103.658 22.1367 103.863 22.1016 104.027 22.0898C104.203 22.0664 104.443 22.043 104.748 22.0195C105.053 21.9961 105.275 21.9785 105.416 21.9668C105.568 21.0762 105.645 20.2383 105.645 19.4531L105.627 18.7852C105.627 18.2578 106.295 17.9004 107.631 17.7129C108.076 17.6543 109.477 17.3613 111.832 16.834C114.188 16.3066 115.629 16.043 116.156 16.043C117 16.043 117.422 16.3359 117.422 16.9219C117.422 17.9297 117.129 19.3242 116.543 21.1055ZM132.293 27.5215C131.754 28.9629 131.484 30.2871 131.484 31.4941C131.484 32.7012 131.607 33.6035 131.854 34.2012C132.1 34.7871 132.469 35.2383 132.961 35.5547C134.637 36.6094 137.953 36.668 142.91 35.7305C145.266 35.2852 146.977 34.8867 148.043 34.5352C149.121 34.1719 149.754 33.9902 149.941 33.9902C150.352 33.9902 150.557 34.1895 150.557 34.5879C150.557 34.9863 150.246 35.3906 149.625 35.8008C147.984 36.8672 145.67 37.7871 142.682 38.5605C139.693 39.3223 136.354 39.7031 132.662 39.7031C128.982 39.7031 126.188 39.0469 124.277 37.7344C122.367 36.4219 121.412 34.6055 121.412 32.2852C121.412 30.8438 121.711 29.4844 122.309 28.207C122.918 26.9297 123.744 25.8223 124.787 24.8848C125.842 23.9355 127.066 23.1152 128.461 22.4238C131.25 21.041 134.414 20.3496 137.953 20.3496C142.078 20.3496 144.973 20.8242 146.637 21.7734C146.824 21.9258 146.918 22.2129 146.918 22.6348C146.918 23.0449 146.736 23.7305 146.373 24.6914C146.01 25.6523 145.529 26.543 144.932 27.3633C144.346 28.1836 143.807 28.5938 143.314 28.5938C142.822 28.5938 142.43 28.3301 142.137 27.8027C141.844 27.2754 141.598 26.8477 141.398 26.5195C141.199 26.1797 140.924 25.7812 140.572 25.3242C140.221 24.8672 139.887 24.5215 139.57 24.2871C139.266 24.0527 138.891 23.8477 138.445 23.6719C138 23.4961 137.455 23.4082 136.811 23.4082C136.178 23.4082 135.539 23.6016 134.895 23.9883C134.262 24.3633 133.74 24.8555 133.33 25.4648C132.92 26.0625 132.574 26.748 132.293 27.5215ZM154.283 20.9121L162.229 20.7188C162.533 20.7188 162.762 20.8125 162.914 21C163.066 21.1758 163.143 21.4453 163.143 21.8086C163.143 22.1602 162.814 23.0859 162.158 24.5859C161.514 26.0742 160.863 27.6621 160.207 29.3496C159.551 31.0254 159.223 32.25 159.223 33.0234C159.223 34.4766 159.996 35.2031 161.543 35.2031C162.281 35.2031 163.09 35.1094 163.969 34.9219C164.25 33.9258 164.719 32.6074 165.375 30.9668C167.039 26.8535 168.041 23.7246 168.381 21.5801C168.439 21.1465 168.75 20.9297 169.312 20.9297C171.012 20.9297 172.799 20.8945 174.674 20.8242C176.549 20.7539 177.627 20.7188 177.908 20.7188C178.201 20.7188 178.424 20.8008 178.576 20.9648C178.74 21.1172 178.822 21.2637 178.822 21.4043C178.822 21.9668 178.459 23.1562 177.732 24.9727C177.006 26.7891 176.279 28.6699 175.553 30.6152C174.826 32.5488 174.463 33.9609 174.463 34.8516C174.463 35.7422 174.855 36.1875 175.641 36.1875C176.438 36.1875 177.533 35.9766 178.928 35.5547C180.334 35.1211 181.312 34.752 181.863 34.4473C182.426 34.1426 182.789 33.9902 182.953 33.9902C183.398 33.9902 183.621 34.2012 183.621 34.623C183.621 35.0449 183.305 35.4492 182.672 35.8359C182.051 36.2109 181.295 36.5977 180.404 36.9961C179.525 37.3828 178.465 37.793 177.223 38.2266C174.363 39.2109 171.451 39.7031 168.486 39.7031C165.521 39.7031 163.852 38.9062 163.477 37.3125C162.34 37.7812 161.408 38.1504 160.682 38.4199C159.955 38.6777 158.947 38.9531 157.658 39.2461C156.369 39.5508 155.186 39.7031 154.107 39.7031C150.662 39.7031 148.939 38.2969 148.939 35.4844C148.939 34.5117 149.127 33.334 149.502 31.9512C149.877 30.5566 150.293 29.2969 150.75 28.1719C151.957 25.1836 152.561 23.332 152.561 22.6172C152.561 21.8906 152.666 21.4277 152.877 21.2285C153.088 21.0176 153.557 20.9121 154.283 20.9121ZM186.574 20.9121L194.555 20.7188C194.859 20.7188 195.088 20.8125 195.24 21C195.393 21.1758 195.469 21.3809 195.469 21.6152C195.469 21.8379 195.428 22.2305 195.346 22.793C195.264 23.3438 195.223 23.748 195.223 24.0059C197.379 21.5684 200.256 20.3496 203.854 20.3496C206.045 20.3496 207.768 20.9121 209.021 22.0371C210.287 23.1504 210.92 24.7324 210.92 26.7832C210.92 30.7676 209.355 34.0254 206.227 36.5566C209.859 36.2988 212.648 35.625 214.594 34.5352C215.238 34.1719 215.713 33.9902 216.018 33.9902C216.416 33.9902 216.615 34.207 216.615 34.6406C216.615 34.9453 216.398 35.2559 215.965 35.5723C213.973 36.9668 211.406 37.998 208.266 38.666C205.137 39.334 201.768 39.668 198.158 39.668C197.713 39.6914 197.379 39.7031 197.156 39.7031C195.914 39.7031 194.672 39.5156 193.43 39.1406C192.188 38.7656 191.156 38.2383 190.336 37.5586C189.527 40.0312 189.123 42.8848 189.123 46.1191L189.141 46.6289C189.141 47.2148 188.572 47.5078 187.436 47.5078L179.262 47.7188C178.98 47.7188 178.758 47.6309 178.594 47.4551C178.43 47.291 178.348 47.1035 178.348 46.8926C178.348 44.8887 179.443 41.0039 181.635 35.2383C183.826 29.4609 184.922 25.5938 184.922 23.6367L184.852 22.1777C184.852 21.7441 184.957 21.4277 185.168 21.2285C185.391 21.0176 185.859 20.9121 186.574 20.9121ZM198.668 24.8145C196.465 24.8145 194.625 26.502 193.148 29.877C192.469 31.4238 192.129 32.6777 192.129 33.6387C192.129 34.5996 192.287 35.2617 192.604 35.625C192.932 35.9883 193.564 36.1699 194.502 36.1699C195.451 36.1699 196.471 35.7363 197.561 34.8691C198.662 33.9902 199.547 32.8887 200.215 31.5645C200.883 30.2402 201.217 29.0508 201.217 27.9961C201.217 26.9297 200.982 26.1328 200.514 25.6055C200.045 25.0781 199.43 24.8145 198.668 24.8145ZM231.363 14.2148C231.363 15.4687 230.666 16.5645 229.271 17.502C227.889 18.4277 226.424 18.8906 224.877 18.8906C223.342 18.8906 222.146 18.5801 221.291 17.959C220.436 17.3262 220.008 16.5586 220.008 15.6562C220.008 14.7539 220.336 13.9336 220.992 13.1953C221.648 12.457 222.498 11.877 223.541 11.4551C224.596 11.0332 225.738 10.8223 226.969 10.8223C228.199 10.8223 229.236 11.1504 230.08 11.8066C230.936 12.4512 231.363 13.2539 231.363 14.2148ZM226.424 36.0293C227.221 36.0293 228.299 35.8418 229.658 35.4668C231.029 35.0801 232.025 34.7402 232.646 34.4473C233.268 34.1426 233.701 33.9902 233.947 33.9902C234.439 33.9902 234.686 34.2363 234.686 34.7285C234.686 34.9512 234.504 35.2031 234.141 35.4844C232.945 36.375 230.795 37.3008 227.689 38.2617C224.584 39.2227 221.812 39.7031 219.375 39.7031C217.863 39.7031 216.598 39.4629 215.578 38.9824C214.559 38.502 214.049 37.7695 214.049 36.7852C214.049 36.1875 214.559 34.7227 215.578 32.3906C217.5 27.9727 218.461 24.6445 218.461 22.4062L218.443 21.7383C218.443 21.1523 219.012 20.8594 220.148 20.8594L228.832 20.666C229.137 20.666 229.365 20.7598 229.518 20.9473C229.67 21.123 229.746 21.3223 229.746 21.5449C229.746 22.3535 229.377 23.6895 228.639 25.5527C227.9 27.4043 227.162 29.2266 226.424 31.0195C225.686 32.8125 225.316 34.0957 225.316 34.8691C225.316 35.6426 225.686 36.0293 226.424 36.0293ZM266.906 33.9902C267.434 33.9902 267.697 34.2305 267.697 34.7109C267.697 35.0508 267.451 35.4023 266.959 35.7656C265.646 36.7266 263.684 37.623 261.07 38.4551C258.469 39.2871 256.195 39.7031 254.25 39.7031C252.305 39.7031 250.869 39.498 249.943 39.0879C249.029 38.6895 248.396 37.9805 248.045 36.9609C247.365 37.6523 246.387 38.2852 245.109 38.8594C243.832 39.4219 242.479 39.7031 241.049 39.7031C239.631 39.7031 238.471 39.5742 237.568 39.3164C236.666 39.0703 235.846 38.6895 235.107 38.1738C234.369 37.6582 233.783 36.9551 233.35 36.0645C232.928 35.1621 232.717 34.1133 232.717 32.918C232.717 31.7227 232.898 30.5332 233.262 29.3496C233.625 28.166 234.182 27.0352 234.932 25.957C235.693 24.8672 236.602 23.9062 237.656 23.0742C238.711 22.2422 239.988 21.5801 241.488 21.0879C243 20.5957 244.623 20.3496 246.357 20.3496C249.205 20.3496 251.572 21.0586 253.459 22.4766C254.115 18.3047 254.443 15.5801 254.443 14.3027L254.426 13.793C254.426 13.207 254.994 12.9141 256.131 12.9141L264.006 13.2832C264.287 13.2832 264.51 13.3711 264.674 13.5469C264.838 13.7109 264.92 13.8984 264.92 14.1094C264.92 15.9375 263.953 19.6875 262.02 25.3594C260.086 31.0195 259.119 34.125 259.119 34.6758C259.119 35.2266 259.195 35.6191 259.348 35.8535C259.512 36.0879 259.846 36.2051 260.35 36.2051C260.854 36.2051 261.721 35.9941 262.951 35.5723C264.182 35.1504 265.107 34.7812 265.729 34.4648C266.35 34.1484 266.742 33.9902 266.906 33.9902ZM245.127 35.2383C247.33 35.2383 249.17 33.5508 250.646 30.1758C251.49 28.5586 251.912 27.1289 251.912 25.8867C251.912 25.207 251.748 24.6855 251.42 24.3223C251.104 23.959 250.465 23.7773 249.504 23.7773C248.555 23.7773 247.512 24.2227 246.375 25.1133C245.238 26.0039 244.318 27.123 243.615 28.4707C242.924 29.8066 242.578 31.0078 242.578 32.0742C242.578 33.1289 242.812 33.9199 243.281 34.4473C243.75 34.9746 244.365 35.2383 245.127 35.2383Z" fill="#00E0FF"/>
<path d="M19.1348 30.3398C20.248 31.6758 21.9941 32.3438 24.373 32.3438C26.5996 32.3438 28.9082 31.9688 31.2988 31.2188C32.084 30.9727 32.6641 30.8496 33.0391 30.8496C33.7188 30.8496 34.0586 31.043 34.0586 31.4297C34.0586 31.9922 33.6133 32.5957 32.7227 33.2402C31.832 33.873 30.707 34.4414 29.3477 34.9453C27.9883 35.4492 26.4473 35.8652 24.7246 36.1934C23.0137 36.5332 21.3848 36.7031 19.8379 36.7031C17.0957 36.7031 14.6816 36.2754 12.5957 35.4199C10.5098 34.5645 8.89258 33.3457 7.74414 31.7637C6.5957 30.1699 6.02148 28.4355 6.02148 26.5605C6.02148 24.6738 6.33789 22.9336 6.9707 21.3398C7.60352 19.7344 8.45898 18.2871 9.53711 16.998C10.627 15.709 11.8926 14.5137 13.334 13.4121C14.7871 12.3105 16.3164 11.3906 17.9219 10.6523C21.3555 9.08203 24.6484 8.29688 27.8008 8.29688C30.9531 8.29688 33.4023 8.94727 35.1484 10.248C36.8945 11.5371 37.7676 13.1191 37.7676 14.9941C37.7676 17.0332 37.1641 18.8203 35.957 20.3555C35.3828 21.1055 34.6152 21.7031 33.6543 22.1484C32.7051 22.5938 31.6328 22.8164 30.4375 22.8164C29.6406 22.8164 28.9609 22.7051 28.3984 22.4824C27.332 22.0605 26.7988 21.457 26.7988 20.6719C26.7988 20.4023 27.1035 19.6406 27.7129 18.3867C28.334 17.1328 28.9551 15.8437 29.5762 14.5195C30.1973 13.1836 30.5078 12.2695 30.5078 11.7773C30.5078 11.2734 30.2969 10.9277 29.875 10.7402C29.4531 10.5527 28.8496 10.459 28.0645 10.459C27.291 10.459 26.4121 10.7578 25.4277 11.3555C24.4434 11.9414 23.4941 12.75 22.5801 13.7812C21.666 14.8008 20.8281 15.9375 20.0664 17.1914C19.3047 18.4453 18.6953 19.8047 18.2383 21.2695C17.7812 22.7227 17.5527 24.0293 17.5527 25.1895C17.5527 26.3496 17.6816 27.3398 17.9395 28.1602C18.209 28.9805 18.6074 29.707 19.1348 30.3398ZM46.1875 9.9668L54.2383 9.91406C54.5078 9.91406 54.7246 10.002 54.8887 10.1777C55.0645 10.3418 55.1523 10.6172 55.1523 11.0039C55.1523 11.3906 54.9121 12.5273 54.4316 14.4141C53.9512 16.2891 53.4121 18.1289 52.8145 19.9336C54.3496 19.2773 56.0488 18.6855 57.9121 18.1582C59.7754 17.6191 61.4512 17.3496 62.9395 17.3496C64.0645 17.3496 65.0898 17.6602 66.0156 18.2812C67.0469 18.9727 67.5625 20.0215 67.5625 21.4277C67.5625 22.8223 67.0176 24.7031 65.9277 27.0703C64.8379 29.4375 64.293 30.9492 64.293 31.6055C64.293 32.5664 64.7559 33.0469 65.6816 33.0469C67.5098 33.0469 69.5781 32.4551 71.8867 31.2715C72.2383 31.084 72.5254 30.9902 72.748 30.9902C73.2285 30.9902 73.4688 31.207 73.4688 31.6406C73.4688 32.0625 73.1992 32.4434 72.6602 32.7832C72.1328 33.1113 71.4648 33.4688 70.6562 33.8555C69.8477 34.2305 68.834 34.6465 67.6152 35.1035C64.7676 36.1699 61.7266 36.7031 58.4922 36.7031C55.2578 36.7031 53.6406 35.9062 53.6406 34.3125C53.6406 33.2812 54.2266 31.4414 55.3984 28.793C56.582 26.1328 57.1738 24.3398 57.1738 23.4141C57.1738 22.3008 56.3594 21.7441 54.7305 21.7441C53.8281 21.7441 52.9375 21.8848 52.0586 22.166C50.125 27.8379 48.7363 32.2852 47.8926 35.5078C47.834 35.7305 47.6992 35.8945 47.4883 36C47.2891 36.1055 47.1133 36.1582 46.9609 36.1582L37.9082 36.3516C37.7793 36.3516 37.6328 36.2695 37.4688 36.1055C37.3164 35.9531 37.2402 35.7598 37.2402 35.5254C37.2402 35.291 37.6152 34.1133 38.3652 31.9922C39.127 29.8711 39.959 27.5684 40.8613 25.084C41.7754 22.5996 42.6074 20.0156 43.3574 17.332C44.1191 14.6484 44.5 12.6504 44.5 11.3379L44.4824 10.8457C44.4824 10.2598 45.0508 9.9668 46.1875 9.9668ZM83.8926 32.2383C86.0957 32.2383 87.9355 30.5508 89.4121 27.1758C90.0918 25.6289 90.4316 24.375 90.4316 23.4141C90.4316 22.4531 90.2676 21.791 89.9395 21.4277C89.623 21.0645 88.9902 20.8828 88.041 20.8828C87.1035 20.8828 86.084 21.3223 84.9824 22.2012C83.8926 23.0684 83.0137 24.1641 82.3457 25.4883C81.6777 26.8125 81.3438 28.0078 81.3438 29.0742C81.3438 30.1289 81.5781 30.9199 82.0469 31.4473C82.5156 31.9746 83.1309 32.2383 83.8926 32.2383ZM93.0332 17.3496L101.084 17.7188C101.389 17.7188 101.617 17.8125 101.77 18C101.922 18.1758 101.998 18.375 101.998 18.5977C101.998 19.4531 101.641 20.8184 100.926 22.6934C100.223 24.5566 99.5137 26.4082 98.7988 28.248C98.0957 30.0762 97.7441 31.2891 97.7441 31.8867C97.7441 32.4727 97.832 32.8477 98.0078 33.0117C98.1953 33.1758 98.5469 33.2578 99.0625 33.2578C99.5781 33.2578 100.516 33.0117 101.875 32.5195C103.246 32.0156 104.172 31.6348 104.652 31.377C105.145 31.1191 105.52 30.9902 105.777 30.9902C106.234 30.9902 106.463 31.1953 106.463 31.6055C106.463 32.4727 104.705 33.6094 101.189 35.0156C100.006 35.4961 98.5762 35.8945 96.9004 36.2109C95.2363 36.5391 93.543 36.7031 91.8203 36.7031C88.9492 36.7031 87.2207 35.7891 86.6348 33.9609C84.8066 35.7891 82.3457 36.7031 79.252 36.7031C77.1309 36.7031 75.3379 36.1934 73.873 35.1738C72.2793 34.0605 71.4824 32.3086 71.4824 29.918C71.4824 27.3984 72.2266 25.0781 73.7148 22.957C75.3438 20.6016 77.5234 18.9785 80.2539 18.0879C81.7656 17.5957 83.3887 17.3496 85.123 17.3496C87.7832 17.3496 89.8516 18.0059 91.3281 19.3184C91.3398 19.248 91.3457 19.1367 91.3457 18.9844L91.3281 18.2285C91.3281 17.6426 91.8965 17.3496 93.0332 17.3496ZM120.543 18.1055L125.166 17.5078C126.033 17.5078 126.467 17.8477 126.467 18.5273C126.467 19.207 126.057 19.6348 125.236 19.8105C124.416 19.9746 122.564 20.1973 119.682 20.4785C119.283 21.5215 118.686 22.9688 117.889 24.8203C116.26 28.6172 115.445 30.8965 115.445 31.6582C115.445 32.4902 115.961 32.9062 116.992 32.9062C120.32 32.9062 123.309 32.3496 125.957 31.2363C126.344 31.0723 126.648 30.9902 126.871 30.9902C127.305 30.9902 127.521 31.1836 127.521 31.5703C127.521 31.957 127.24 32.3379 126.678 32.7129C124.955 33.8496 122.359 34.7988 118.891 35.5605C115.422 36.3223 112.223 36.7031 109.293 36.7031C107.629 36.7031 106.357 36.4453 105.479 35.9297C104.6 35.4023 104.16 34.6816 104.16 33.7676C104.16 32.8418 104.77 31.1133 105.988 28.582C107.359 25.7461 108.344 23.2559 108.941 21.1113C108.215 21.1465 107.711 21.1641 107.43 21.1641C106.738 21.1641 106.393 20.8828 106.393 20.3203C106.393 19.9102 106.504 19.6348 106.727 19.4941C106.949 19.3535 107.178 19.2539 107.412 19.1953C107.658 19.1367 107.863 19.1016 108.027 19.0898C108.203 19.0664 108.443 19.043 108.748 19.0195C109.053 18.9961 109.275 18.9785 109.416 18.9668C109.568 18.0762 109.645 17.2383 109.645 16.4531L109.627 15.7852C109.627 15.2578 110.295 14.9004 111.631 14.7129C112.076 14.6543 113.477 14.3613 115.832 13.834C118.188 13.3066 119.629 13.043 120.156 13.043C121 13.043 121.422 13.3359 121.422 13.9219C121.422 14.9297 121.129 16.3242 120.543 18.1055ZM136.293 24.5215C135.754 25.9629 135.484 27.2871 135.484 28.4941C135.484 29.7012 135.607 30.6035 135.854 31.2012C136.1 31.7871 136.469 32.2383 136.961 32.5547C138.637 33.6094 141.953 33.668 146.91 32.7305C149.266 32.2852 150.977 31.8867 152.043 31.5352C153.121 31.1719 153.754 30.9902 153.941 30.9902C154.352 30.9902 154.557 31.1895 154.557 31.5879C154.557 31.9863 154.246 32.3906 153.625 32.8008C151.984 33.8672 149.67 34.7871 146.682 35.5605C143.693 36.3223 140.354 36.7031 136.662 36.7031C132.982 36.7031 130.188 36.0469 128.277 34.7344C126.367 33.4219 125.412 31.6055 125.412 29.2852C125.412 27.8438 125.711 26.4844 126.309 25.207C126.918 23.9297 127.744 22.8223 128.787 21.8848C129.842 20.9355 131.066 20.1152 132.461 19.4238C135.25 18.041 138.414 17.3496 141.953 17.3496C146.078 17.3496 148.973 17.8242 150.637 18.7734C150.824 18.9258 150.918 19.2129 150.918 19.6348C150.918 20.0449 150.736 20.7305 150.373 21.6914C150.01 22.6523 149.529 23.543 148.932 24.3633C148.346 25.1836 147.807 25.5938 147.314 25.5938C146.822 25.5938 146.43 25.3301 146.137 24.8027C145.844 24.2754 145.598 23.8477 145.398 23.5195C145.199 23.1797 144.924 22.7812 144.572 22.3242C144.221 21.8672 143.887 21.5215 143.57 21.2871C143.266 21.0527 142.891 20.8477 142.445 20.6719C142 20.4961 141.455 20.4082 140.811 20.4082C140.178 20.4082 139.539 20.6016 138.895 20.9883C138.262 21.3633 137.74 21.8555 137.33 22.4648C136.92 23.0625 136.574 23.748 136.293 24.5215ZM158.283 17.9121L166.229 17.7188C166.533 17.7188 166.762 17.8125 166.914 18C167.066 18.1758 167.143 18.4453 167.143 18.8086C167.143 19.1602 166.814 20.0859 166.158 21.5859C165.514 23.0742 164.863 24.6621 164.207 26.3496C163.551 28.0254 163.223 29.25 163.223 30.0234C163.223 31.4766 163.996 32.2031 165.543 32.2031C166.281 32.2031 167.09 32.1094 167.969 31.9219C168.25 30.9258 168.719 29.6074 169.375 27.9668C171.039 23.8535 172.041 20.7246 172.381 18.5801C172.439 18.1465 172.75 17.9297 173.312 17.9297C175.012 17.9297 176.799 17.8945 178.674 17.8242C180.549 17.7539 181.627 17.7188 181.908 17.7188C182.201 17.7188 182.424 17.8008 182.576 17.9648C182.74 18.1172 182.822 18.2637 182.822 18.4043C182.822 18.9668 182.459 20.1562 181.732 21.9727C181.006 23.7891 180.279 25.6699 179.553 27.6152C178.826 29.5488 178.463 30.9609 178.463 31.8516C178.463 32.7422 178.855 33.1875 179.641 33.1875C180.438 33.1875 181.533 32.9766 182.928 32.5547C184.334 32.1211 185.312 31.752 185.863 31.4473C186.426 31.1426 186.789 30.9902 186.953 30.9902C187.398 30.9902 187.621 31.2012 187.621 31.623C187.621 32.0449 187.305 32.4492 186.672 32.8359C186.051 33.2109 185.295 33.5977 184.404 33.9961C183.525 34.3828 182.465 34.793 181.223 35.2266C178.363 36.2109 175.451 36.7031 172.486 36.7031C169.521 36.7031 167.852 35.9062 167.477 34.3125C166.34 34.7812 165.408 35.1504 164.682 35.4199C163.955 35.6777 162.947 35.9531 161.658 36.2461C160.369 36.5508 159.186 36.7031 158.107 36.7031C154.662 36.7031 152.939 35.2969 152.939 32.4844C152.939 31.5117 153.127 30.334 153.502 28.9512C153.877 27.5566 154.293 26.2969 154.75 25.1719C155.957 22.1836 156.561 20.332 156.561 19.6172C156.561 18.8906 156.666 18.4277 156.877 18.2285C157.088 18.0176 157.557 17.9121 158.283 17.9121ZM190.574 17.9121L198.555 17.7188C198.859 17.7188 199.088 17.8125 199.24 18C199.393 18.1758 199.469 18.3809 199.469 18.6152C199.469 18.8379 199.428 19.2305 199.346 19.793C199.264 20.3438 199.223 20.748 199.223 21.0059C201.379 18.5684 204.256 17.3496 207.854 17.3496C210.045 17.3496 211.768 17.9121 213.021 19.0371C214.287 20.1504 214.92 21.7324 214.92 23.7832C214.92 27.7676 213.355 31.0254 210.227 33.5566C213.859 33.2988 216.648 32.625 218.594 31.5352C219.238 31.1719 219.713 30.9902 220.018 30.9902C220.416 30.9902 220.615 31.207 220.615 31.6406C220.615 31.9453 220.398 32.2559 219.965 32.5723C217.973 33.9668 215.406 34.998 212.266 35.666C209.137 36.334 205.768 36.668 202.158 36.668C201.713 36.6914 201.379 36.7031 201.156 36.7031C199.914 36.7031 198.672 36.5156 197.43 36.1406C196.188 35.7656 195.156 35.2383 194.336 34.5586C193.527 37.0312 193.123 39.8848 193.123 43.1191L193.141 43.6289C193.141 44.2148 192.572 44.5078 191.436 44.5078L183.262 44.7188C182.98 44.7188 182.758 44.6309 182.594 44.4551C182.43 44.291 182.348 44.1035 182.348 43.8926C182.348 41.8887 183.443 38.0039 185.635 32.2383C187.826 26.4609 188.922 22.5938 188.922 20.6367L188.852 19.1777C188.852 18.7441 188.957 18.4277 189.168 18.2285C189.391 18.0176 189.859 17.9121 190.574 17.9121ZM202.668 21.8145C200.465 21.8145 198.625 23.502 197.148 26.877C196.469 28.4238 196.129 29.6777 196.129 30.6387C196.129 31.5996 196.287 32.2617 196.604 32.625C196.932 32.9883 197.564 33.1699 198.502 33.1699C199.451 33.1699 200.471 32.7363 201.561 31.8691C202.662 30.9902 203.547 29.8887 204.215 28.5645C204.883 27.2402 205.217 26.0508 205.217 24.9961C205.217 23.9297 204.982 23.1328 204.514 22.6055C204.045 22.0781 203.43 21.8145 202.668 21.8145ZM235.363 11.2148C235.363 12.4687 234.666 13.5645 233.271 14.502C231.889 15.4277 230.424 15.8906 228.877 15.8906C227.342 15.8906 226.146 15.5801 225.291 14.959C224.436 14.3262 224.008 13.5586 224.008 12.6562C224.008 11.7539 224.336 10.9336 224.992 10.1953C225.648 9.45703 226.498 8.87695 227.541 8.45508C228.596 8.0332 229.738 7.82227 230.969 7.82227C232.199 7.82227 233.236 8.15039 234.08 8.80664C234.936 9.45117 235.363 10.2539 235.363 11.2148ZM230.424 33.0293C231.221 33.0293 232.299 32.8418 233.658 32.4668C235.029 32.0801 236.025 31.7402 236.646 31.4473C237.268 31.1426 237.701 30.9902 237.947 30.9902C238.439 30.9902 238.686 31.2363 238.686 31.7285C238.686 31.9512 238.504 32.2031 238.141 32.4844C236.945 33.375 234.795 34.3008 231.689 35.2617C228.584 36.2227 225.812 36.7031 223.375 36.7031C221.863 36.7031 220.598 36.4629 219.578 35.9824C218.559 35.502 218.049 34.7695 218.049 33.7852C218.049 33.1875 218.559 31.7227 219.578 29.3906C221.5 24.9727 222.461 21.6445 222.461 19.4062L222.443 18.7383C222.443 18.1523 223.012 17.8594 224.148 17.8594L232.832 17.666C233.137 17.666 233.365 17.7598 233.518 17.9473C233.67 18.123 233.746 18.3223 233.746 18.5449C233.746 19.3535 233.377 20.6895 232.639 22.5527C231.9 24.4043 231.162 26.2266 230.424 28.0195C229.686 29.8125 229.316 31.0957 229.316 31.8691C229.316 32.6426 229.686 33.0293 230.424 33.0293ZM270.906 30.9902C271.434 30.9902 271.697 31.2305 271.697 31.7109C271.697 32.0508 271.451 32.4023 270.959 32.7656C269.646 33.7266 267.684 34.623 265.07 35.4551C262.469 36.2871 260.195 36.7031 258.25 36.7031C256.305 36.7031 254.869 36.498 253.943 36.0879C253.029 35.6895 252.396 34.9805 252.045 33.9609C251.365 34.6523 250.387 35.2852 249.109 35.8594C247.832 36.4219 246.479 36.7031 245.049 36.7031C243.631 36.7031 242.471 36.5742 241.568 36.3164C240.666 36.0703 239.846 35.6895 239.107 35.1738C238.369 34.6582 237.783 33.9551 237.35 33.0645C236.928 32.1621 236.717 31.1133 236.717 29.918C236.717 28.7227 236.898 27.5332 237.262 26.3496C237.625 25.166 238.182 24.0352 238.932 22.957C239.693 21.8672 240.602 20.9062 241.656 20.0742C242.711 19.2422 243.988 18.5801 245.488 18.0879C247 17.5957 248.623 17.3496 250.357 17.3496C253.205 17.3496 255.572 18.0586 257.459 19.4766C258.115 15.3047 258.443 12.5801 258.443 11.3027L258.426 10.793C258.426 10.207 258.994 9.91406 260.131 9.91406L268.006 10.2832C268.287 10.2832 268.51 10.3711 268.674 10.5469C268.838 10.7109 268.92 10.8984 268.92 11.1094C268.92 12.9375 267.953 16.6875 266.02 22.3594C264.086 28.0195 263.119 31.125 263.119 31.6758C263.119 32.2266 263.195 32.6191 263.348 32.8535C263.512 33.0879 263.846 33.2051 264.35 33.2051C264.854 33.2051 265.721 32.9941 266.951 32.5723C268.182 32.1504 269.107 31.7812 269.729 31.4648C270.35 31.1484 270.742 30.9902 270.906 30.9902ZM249.127 32.2383C251.33 32.2383 253.17 30.5508 254.646 27.1758C255.49 25.5586 255.912 24.1289 255.912 22.8867C255.912 22.207 255.748 21.6855 255.42 21.3223C255.104 20.959 254.465 20.7773 253.504 20.7773C252.555 20.7773 251.512 21.2227 250.375 22.1133C249.238 23.0039 248.318 24.123 247.615 25.4707C246.924 26.8066 246.578 28.0078 246.578 29.0742C246.578 30.1289 246.812 30.9199 247.281 31.4473C247.75 31.9746 248.365 32.2383 249.127 32.2383Z" fill="#FF3F84"/>
<path d="M17.1348 31.3398C18.248 32.6758 19.9941 33.3438 22.373 33.3438C24.5996 33.3438 26.9082 32.9688 29.2988 32.2188C30.084 31.9727 30.6641 31.8496 31.0391 31.8496C31.7188 31.8496 32.0586 32.043 32.0586 32.4297C32.0586 32.9922 31.6133 33.5957 30.7227 34.2402C29.832 34.873 28.707 35.4414 27.3477 35.9453C25.9883 36.4492 24.4473 36.8652 22.7246 37.1934C21.0137 37.5332 19.3848 37.7031 17.8379 37.7031C15.0957 37.7031 12.6816 37.2754 10.5957 36.4199C8.50977 35.5645 6.89258 34.3457 5.74414 32.7637C4.5957 31.1699 4.02148 29.4355 4.02148 27.5605C4.02148 25.6738 4.33789 23.9336 4.9707 22.3398C5.60352 20.7344 6.45898 19.2871 7.53711 17.998C8.62695 16.709 9.89258 15.5137 11.334 14.4121C12.7871 13.3105 14.3164 12.3906 15.9219 11.6523C19.3555 10.082 22.6484 9.29688 25.8008 9.29688C28.9531 9.29688 31.4023 9.94727 33.1484 11.248C34.8945 12.5371 35.7676 14.1191 35.7676 15.9941C35.7676 18.0332 35.1641 19.8203 33.957 21.3555C33.3828 22.1055 32.6152 22.7031 31.6543 23.1484C30.7051 23.5938 29.6328 23.8164 28.4375 23.8164C27.6406 23.8164 26.9609 23.7051 26.3984 23.4824C25.332 23.0605 24.7988 22.457 24.7988 21.6719C24.7988 21.4023 25.1035 20.6406 25.7129 19.3867C26.334 18.1328 26.9551 16.8438 27.5762 15.5195C28.1973 14.1836 28.5078 13.2695 28.5078 12.7773C28.5078 12.2734 28.2969 11.9277 27.875 11.7402C27.4531 11.5527 26.8496 11.459 26.0645 11.459C25.291 11.459 24.4121 11.7578 23.4277 12.3555C22.4434 12.9414 21.4941 13.75 20.5801 14.7812C19.666 15.8008 18.8281 16.9375 18.0664 18.1914C17.3047 19.4453 16.6953 20.8047 16.2383 22.2695C15.7812 23.7227 15.5527 25.0293 15.5527 26.1895C15.5527 27.3496 15.6816 28.3398 15.9395 29.1602C16.209 29.9805 16.6074 30.707 17.1348 31.3398ZM44.1875 10.9668L52.2383 10.9141C52.5078 10.9141 52.7246 11.002 52.8887 11.1777C53.0645 11.3418 53.1523 11.6172 53.1523 12.0039C53.1523 12.3906 52.9121 13.5273 52.4316 15.4141C51.9512 17.2891 51.4121 19.1289 50.8145 20.9336C52.3496 20.2773 54.0488 19.6855 55.9121 19.1582C57.7754 18.6191 59.4512 18.3496 60.9395 18.3496C62.0645 18.3496 63.0898 18.6602 64.0156 19.2812C65.0469 19.9727 65.5625 21.0215 65.5625 22.4277C65.5625 23.8223 65.0176 25.7031 63.9277 28.0703C62.8379 30.4375 62.293 31.9492 62.293 32.6055C62.293 33.5664 62.7559 34.0469 63.6816 34.0469C65.5098 34.0469 67.5781 33.4551 69.8867 32.2715C70.2383 32.084 70.5254 31.9902 70.748 31.9902C71.2285 31.9902 71.4688 32.207 71.4688 32.6406C71.4688 33.0625 71.1992 33.4434 70.6602 33.7832C70.1328 34.1113 69.4648 34.4688 68.6562 34.8555C67.8477 35.2305 66.834 35.6465 65.6152 36.1035C62.7676 37.1699 59.7266 37.7031 56.4922 37.7031C53.2578 37.7031 51.6406 36.9062 51.6406 35.3125C51.6406 34.2812 52.2266 32.4414 53.3984 29.793C54.582 27.1328 55.1738 25.3398 55.1738 24.4141C55.1738 23.3008 54.3594 22.7441 52.7305 22.7441C51.8281 22.7441 50.9375 22.8848 50.0586 23.166C48.125 28.8379 46.7363 33.2852 45.8926 36.5078C45.834 36.7305 45.6992 36.8945 45.4883 37C45.2891 37.1055 45.1133 37.1582 44.9609 37.1582L35.9082 37.3516C35.7793 37.3516 35.6328 37.2695 35.4688 37.1055C35.3164 36.9531 35.2402 36.7598 35.2402 36.5254C35.2402 36.291 35.6152 35.1133 36.3652 32.9922C37.127 30.8711 37.959 28.5684 38.8613 26.084C39.7754 23.5996 40.6074 21.0156 41.3574 18.332C42.1191 15.6484 42.5 13.6504 42.5 12.3379L42.4824 11.8457C42.4824 11.2598 43.0508 10.9668 44.1875 10.9668ZM81.8926 33.2383C84.0957 33.2383 85.9355 31.5508 87.4121 28.1758C88.0918 26.6289 88.4316 25.375 88.4316 24.4141C88.4316 23.4531 88.2676 22.791 87.9395 22.4277C87.623 22.0645 86.9902 21.8828 86.041 21.8828C85.1035 21.8828 84.084 22.3223 82.9824 23.2012C81.8926 24.0684 81.0137 25.1641 80.3457 26.4883C79.6777 27.8125 79.3438 29.0078 79.3438 30.0742C79.3438 31.1289 79.5781 31.9199 80.0469 32.4473C80.5156 32.9746 81.1309 33.2383 81.8926 33.2383ZM91.0332 18.3496L99.084 18.7188C99.3887 18.7188 99.6172 18.8125 99.7695 19C99.9219 19.1758 99.998 19.375 99.998 19.5977C99.998 20.4531 99.6406 21.8184 98.9258 23.6934C98.2227 25.5566 97.5137 27.4082 96.7988 29.248C96.0957 31.0762 95.7441 32.2891 95.7441 32.8867C95.7441 33.4727 95.832 33.8477 96.0078 34.0117C96.1953 34.1758 96.5469 34.2578 97.0625 34.2578C97.5781 34.2578 98.5156 34.0117 99.875 33.5195C101.246 33.0156 102.172 32.6348 102.652 32.377C103.145 32.1191 103.52 31.9902 103.777 31.9902C104.234 31.9902 104.463 32.1953 104.463 32.6055C104.463 33.4727 102.705 34.6094 99.1895 36.0156C98.0059 36.4961 96.5762 36.8945 94.9004 37.2109C93.2363 37.5391 91.543 37.7031 89.8203 37.7031C86.9492 37.7031 85.2207 36.7891 84.6348 34.9609C82.8066 36.7891 80.3457 37.7031 77.252 37.7031C75.1309 37.7031 73.3379 37.1934 71.873 36.1738C70.2793 35.0605 69.4824 33.3086 69.4824 30.918C69.4824 28.3984 70.2266 26.0781 71.7148 23.957C73.3438 21.6016 75.5234 19.9785 78.2539 19.0879C79.7656 18.5957 81.3887 18.3496 83.123 18.3496C85.7832 18.3496 87.8516 19.0059 89.3281 20.3184C89.3398 20.248 89.3457 20.1367 89.3457 19.9844L89.3281 19.2285C89.3281 18.6426 89.8965 18.3496 91.0332 18.3496ZM118.543 19.1055L123.166 18.5078C124.033 18.5078 124.467 18.8477 124.467 19.5273C124.467 20.207 124.057 20.6348 123.236 20.8105C122.416 20.9746 120.564 21.1973 117.682 21.4785C117.283 22.5215 116.686 23.9688 115.889 25.8203C114.26 29.6172 113.445 31.8965 113.445 32.6582C113.445 33.4902 113.961 33.9062 114.992 33.9062C118.32 33.9062 121.309 33.3496 123.957 32.2363C124.344 32.0723 124.648 31.9902 124.871 31.9902C125.305 31.9902 125.521 32.1836 125.521 32.5703C125.521 32.957 125.24 33.3379 124.678 33.7129C122.955 34.8496 120.359 35.7988 116.891 36.5605C113.422 37.3223 110.223 37.7031 107.293 37.7031C105.629 37.7031 104.357 37.4453 103.479 36.9297C102.6 36.4023 102.16 35.6816 102.16 34.7676C102.16 33.8418 102.77 32.1133 103.988 29.582C105.359 26.7461 106.344 24.2559 106.941 22.1113C106.215 22.1465 105.711 22.1641 105.43 22.1641C104.738 22.1641 104.393 21.8828 104.393 21.3203C104.393 20.9102 104.504 20.6348 104.727 20.4941C104.949 20.3535 105.178 20.2539 105.412 20.1953C105.658 20.1367 105.863 20.1016 106.027 20.0898C106.203 20.0664 106.443 20.043 106.748 20.0195C107.053 19.9961 107.275 19.9785 107.416 19.9668C107.568 19.0762 107.645 18.2383 107.645 17.4531L107.627 16.7852C107.627 16.2578 108.295 15.9004 109.631 15.7129C110.076 15.6543 111.477 15.3613 113.832 14.834C116.188 14.3066 117.629 14.043 118.156 14.043C119 14.043 119.422 14.3359 119.422 14.9219C119.422 15.9297 119.129 17.3242 118.543 19.1055ZM134.293 25.5215C133.754 26.9629 133.484 28.2871 133.484 29.4941C133.484 30.7012 133.607 31.6035 133.854 32.2012C134.1 32.7871 134.469 33.2383 134.961 33.5547C136.637 34.6094 139.953 34.668 144.91 33.7305C147.266 33.2852 148.977 32.8867 150.043 32.5352C151.121 32.1719 151.754 31.9902 151.941 31.9902C152.352 31.9902 152.557 32.1895 152.557 32.5879C152.557 32.9863 152.246 33.3906 151.625 33.8008C149.984 34.8672 147.67 35.7871 144.682 36.5605C141.693 37.3223 138.354 37.7031 134.662 37.7031C130.982 37.7031 128.188 37.0469 126.277 35.7344C124.367 34.4219 123.412 32.6055 123.412 30.2852C123.412 28.8438 123.711 27.4844 124.309 26.207C124.918 24.9297 125.744 23.8223 126.787 22.8848C127.842 21.9355 129.066 21.1152 130.461 20.4238C133.25 19.041 136.414 18.3496 139.953 18.3496C144.078 18.3496 146.973 18.8242 148.637 19.7734C148.824 19.9258 148.918 20.2129 148.918 20.6348C148.918 21.0449 148.736 21.7305 148.373 22.6914C148.01 23.6523 147.529 24.543 146.932 25.3633C146.346 26.1836 145.807 26.5938 145.314 26.5938C144.822 26.5938 144.43 26.3301 144.137 25.8027C143.844 25.2754 143.598 24.8477 143.398 24.5195C143.199 24.1797 142.924 23.7812 142.572 23.3242C142.221 22.8672 141.887 22.5215 141.57 22.2871C141.266 22.0527 140.891 21.8477 140.445 21.6719C140 21.4961 139.455 21.4082 138.811 21.4082C138.178 21.4082 137.539 21.6016 136.895 21.9883C136.262 22.3633 135.74 22.8555 135.33 23.4648C134.92 24.0625 134.574 24.748 134.293 25.5215ZM156.283 18.9121L164.229 18.7188C164.533 18.7188 164.762 18.8125 164.914 19C165.066 19.1758 165.143 19.4453 165.143 19.8086C165.143 20.1602 164.814 21.0859 164.158 22.5859C163.514 24.0742 162.863 25.6621 162.207 27.3496C161.551 29.0254 161.223 30.25 161.223 31.0234C161.223 32.4766 161.996 33.2031 163.543 33.2031C164.281 33.2031 165.09 33.1094 165.969 32.9219C166.25 31.9258 166.719 30.6074 167.375 28.9668C169.039 24.8535 170.041 21.7246 170.381 19.5801C170.439 19.1465 170.75 18.9297 171.312 18.9297C173.012 18.9297 174.799 18.8945 176.674 18.8242C178.549 18.7539 179.627 18.7188 179.908 18.7188C180.201 18.7188 180.424 18.8008 180.576 18.9648C180.74 19.1172 180.822 19.2637 180.822 19.4043C180.822 19.9668 180.459 21.1562 179.732 22.9727C179.006 24.7891 178.279 26.6699 177.553 28.6152C176.826 30.5488 176.463 31.9609 176.463 32.8516C176.463 33.7422 176.855 34.1875 177.641 34.1875C178.438 34.1875 179.533 33.9766 180.928 33.5547C182.334 33.1211 183.312 32.752 183.863 32.4473C184.426 32.1426 184.789 31.9902 184.953 31.9902C185.398 31.9902 185.621 32.2012 185.621 32.623C185.621 33.0449 185.305 33.4492 184.672 33.8359C184.051 34.2109 183.295 34.5977 182.404 34.9961C181.525 35.3828 180.465 35.793 179.223 36.2266C176.363 37.2109 173.451 37.7031 170.486 37.7031C167.521 37.7031 165.852 36.9062 165.477 35.3125C164.34 35.7812 163.408 36.1504 162.682 36.4199C161.955 36.6777 160.947 36.9531 159.658 37.2461C158.369 37.5508 157.186 37.7031 156.107 37.7031C152.662 37.7031 150.939 36.2969 150.939 33.4844C150.939 32.5117 151.127 31.334 151.502 29.9512C151.877 28.5566 152.293 27.2969 152.75 26.1719C153.957 23.1836 154.561 21.332 154.561 20.6172C154.561 19.8906 154.666 19.4277 154.877 19.2285C155.088 19.0176 155.557 18.9121 156.283 18.9121ZM188.574 18.9121L196.555 18.7188C196.859 18.7188 197.088 18.8125 197.24 19C197.393 19.1758 197.469 19.3809 197.469 19.6152C197.469 19.8379 197.428 20.2305 197.346 20.793C197.264 21.3438 197.223 21.748 197.223 22.0059C199.379 19.5684 202.256 18.3496 205.854 18.3496C208.045 18.3496 209.768 18.9121 211.021 20.0371C212.287 21.1504 212.92 22.7324 212.92 24.7832C212.92 28.7676 211.355 32.0254 208.227 34.5566C211.859 34.2988 214.648 33.625 216.594 32.5352C217.238 32.1719 217.713 31.9902 218.018 31.9902C218.416 31.9902 218.615 32.207 218.615 32.6406C218.615 32.9453 218.398 33.2559 217.965 33.5723C215.973 34.9668 213.406 35.998 210.266 36.666C207.137 37.334 203.768 37.668 200.158 37.668C199.713 37.6914 199.379 37.7031 199.156 37.7031C197.914 37.7031 196.672 37.5156 195.43 37.1406C194.188 36.7656 193.156 36.2383 192.336 35.5586C191.527 38.0312 191.123 40.8848 191.123 44.1191L191.141 44.6289C191.141 45.2148 190.572 45.5078 189.436 45.5078L181.262 45.7188C180.98 45.7188 180.758 45.6309 180.594 45.4551C180.43 45.291 180.348 45.1035 180.348 44.8926C180.348 42.8887 181.443 39.0039 183.635 33.2383C185.826 27.4609 186.922 23.5938 186.922 21.6367L186.852 20.1777C186.852 19.7441 186.957 19.4277 187.168 19.2285C187.391 19.0176 187.859 18.9121 188.574 18.9121ZM200.668 22.8145C198.465 22.8145 196.625 24.502 195.148 27.877C194.469 29.4238 194.129 30.6777 194.129 31.6387C194.129 32.5996 194.287 33.2617 194.604 33.625C194.932 33.9883 195.564 34.1699 196.502 34.1699C197.451 34.1699 198.471 33.7363 199.561 32.8691C200.662 31.9902 201.547 30.8887 202.215 29.5645C202.883 28.2402 203.217 27.0508 203.217 25.9961C203.217 24.9297 202.982 24.1328 202.514 23.6055C202.045 23.0781 201.43 22.8145 200.668 22.8145ZM233.363 12.2148C233.363 13.4687 232.666 14.5645 231.271 15.502C229.889 16.4277 228.424 16.8906 226.877 16.8906C225.342 16.8906 224.146 16.5801 223.291 15.959C222.436 15.3262 222.008 14.5586 222.008 13.6562C222.008 12.7539 222.336 11.9336 222.992 11.1953C223.648 10.457 224.498 9.87695 225.541 9.45508C226.596 9.0332 227.738 8.82227 228.969 8.82227C230.199 8.82227 231.236 9.15039 232.08 9.80664C232.936 10.4512 233.363 11.2539 233.363 12.2148ZM228.424 34.0293C229.221 34.0293 230.299 33.8418 231.658 33.4668C233.029 33.0801 234.025 32.7402 234.646 32.4473C235.268 32.1426 235.701 31.9902 235.947 31.9902C236.439 31.9902 236.686 32.2363 236.686 32.7285C236.686 32.9512 236.504 33.2031 236.141 33.4844C234.945 34.375 232.795 35.3008 229.689 36.2617C226.584 37.2227 223.812 37.7031 221.375 37.7031C219.863 37.7031 218.598 37.4629 217.578 36.9824C216.559 36.502 216.049 35.7695 216.049 34.7852C216.049 34.1875 216.559 32.7227 217.578 30.3906C219.5 25.9727 220.461 22.6445 220.461 20.4062L220.443 19.7383C220.443 19.1523 221.012 18.8594 222.148 18.8594L230.832 18.666C231.137 18.666 231.365 18.7598 231.518 18.9473C231.67 19.123 231.746 19.3223 231.746 19.5449C231.746 20.3535 231.377 21.6895 230.639 23.5527C229.9 25.4043 229.162 27.2266 228.424 29.0195C227.686 30.8125 227.316 32.0957 227.316 32.8691C227.316 33.6426 227.686 34.0293 228.424 34.0293ZM268.906 31.9902C269.434 31.9902 269.697 32.2305 269.697 32.7109C269.697 33.0508 269.451 33.4023 268.959 33.7656C267.646 34.7266 265.684 35.623 263.07 36.4551C260.469 37.2871 258.195 37.7031 256.25 37.7031C254.305 37.7031 252.869 37.498 251.943 37.0879C251.029 36.6895 250.396 35.9805 250.045 34.9609C249.365 35.6523 248.387 36.2852 247.109 36.8594C245.832 37.4219 244.479 37.7031 243.049 37.7031C241.631 37.7031 240.471 37.5742 239.568 37.3164C238.666 37.0703 237.846 36.6895 237.107 36.1738C236.369 35.6582 235.783 34.9551 235.35 34.0645C234.928 33.1621 234.717 32.1133 234.717 30.918C234.717 29.7227 234.898 28.5332 235.262 27.3496C235.625 26.166 236.182 25.0352 236.932 23.957C237.693 22.8672 238.602 21.9062 239.656 21.0742C240.711 20.2422 241.988 19.5801 243.488 19.0879C245 18.5957 246.623 18.3496 248.357 18.3496C251.205 18.3496 253.572 19.0586 255.459 20.4766C256.115 16.3047 256.443 13.5801 256.443 12.3027L256.426 11.793C256.426 11.207 256.994 10.9141 258.131 10.9141L266.006 11.2832C266.287 11.2832 266.51 11.3711 266.674 11.5469C266.838 11.7109 266.92 11.8984 266.92 12.1094C266.92 13.9375 265.953 17.6875 264.02 23.3594C262.086 29.0195 261.119 32.125 261.119 32.6758C261.119 33.2266 261.195 33.6191 261.348 33.8535C261.512 34.0879 261.846 34.2051 262.35 34.2051C262.854 34.2051 263.721 33.9941 264.951 33.5723C266.182 33.1504 267.107 32.7812 267.729 32.4648C268.35 32.1484 268.742 31.9902 268.906 31.9902ZM247.127 33.2383C249.33 33.2383 251.17 31.5508 252.646 28.1758C253.49 26.5586 253.912 25.1289 253.912 23.8867C253.912 23.207 253.748 22.6855 253.42 22.3223C253.104 21.959 252.465 21.7773 251.504 21.7773C250.555 21.7773 249.512 22.2227 248.375 23.1133C247.238 24.0039 246.318 25.123 245.615 26.4707C244.924 27.8066 244.578 29.0078 244.578 30.0742C244.578 31.1289 244.812 31.9199 245.281 32.4473C245.75 32.9746 246.365 33.2383 247.127 33.2383Z" fill="white"/>
</svg>
