<svg width="24" height="24" viewBox="0 0 24 24" fill="none" xmlns="http://www.w3.org/2000/svg">
<path d="M7.9 20C9.80858 20.9791 12.0041 21.2443 14.0909 20.7478C16.1777 20.2514 18.0186 19.0259 19.2818 17.2922C20.545 15.5586 21.1474 13.4308 20.9806 11.2922C20.8137 9.15366 19.8886 7.14502 18.3718 5.62824C16.855 4.11146 14.8464 3.1863 12.7078 3.01946C10.5693 2.85263 8.44147 3.45509 6.70782 4.71829C4.97417 5.98149 3.74869 7.82236 3.25222 9.90916C2.75575 11.996 3.02094 14.1915 4 16.1L2 22L7.9 20Z" stroke="white" stroke-width="1.5" stroke-linecap="round" stroke-linejoin="round"/>
<path d="M15.8 9.19999C15.3327 8.74193 14.7044 8.48535 14.05 8.48535C13.3956 8.48535 12.7673 8.74193 12.3 9.19999L12 9.59999L11.65 9.29999C11.4208 9.05186 11.1421 8.85447 10.832 8.72054C10.5218 8.5866 10.1871 8.51908 9.84926 8.52233C9.51145 8.52557 9.17806 8.59951 8.87055 8.73938C8.56304 8.87926 8.28822 9.08196 8.06378 9.33446C7.83934 9.58695 7.67026 9.88364 7.5674 10.2054C7.46455 10.5272 7.43021 10.867 7.46659 11.2028C7.50297 11.5387 7.60927 11.8632 7.77864 12.1555C7.94802 12.4478 8.17671 12.7014 8.45001 12.9L12.05 16.4L15.65 12.9C16.85 11.7 16.75 10.2 15.85 9.19999" stroke="white" stroke-width="1.5" stroke-linecap="round" stroke-linejoin="round"/>
</svg>
