<svg width="29" height="22" viewBox="0 0 29 22" fill="none" xmlns="http://www.w3.org/2000/svg">
<path d="M16.4122 14.0967L10.1689 21.0336L3.92568 14.0967C2.58784 12.6598 1.25 10.9255 1.25 8.64625C1.25 7.2007 1.76682 5.81436 2.68676 4.7922C3.6067 3.77004 4.85441 3.1958 6.15541 3.1958C7.72514 3.1958 8.83108 3.6913 10.1689 5.17778" stroke="black" stroke-width="1.5" stroke-linecap="round" stroke-linejoin="round"/>
<g clip-path="url(#clip0_259_291)">
<path d="M16.8581 11.3716C19.321 11.3716 21.3176 9.37499 21.3176 6.9121C21.3176 4.4492 19.321 2.45264 16.8581 2.45264C14.3952 2.45264 12.3987 4.4492 12.3987 6.9121C12.3987 9.37499 14.3952 11.3716 16.8581 11.3716Z" stroke="black" stroke-width="1.5" stroke-linecap="round" stroke-linejoin="round"/>
<path d="M24.3573 8.67383C25.0599 8.93577 25.6851 9.37064 26.1751 9.93823C26.6651 10.5058 27.004 11.1878 27.1606 11.9211C27.3172 12.6544 27.2864 13.4154 27.0709 14.1336C26.8555 14.8518 26.4624 15.5041 25.9281 16.0302C25.3938 16.5562 24.7354 16.9391 24.0139 17.1433C23.2924 17.3475 22.5311 17.3664 21.8003 17.1984C21.0695 17.0304 20.3929 16.6809 19.8331 16.1821C19.2732 15.6833 18.8481 15.0514 18.5972 14.3448" stroke="black" stroke-width="1.5" stroke-linecap="round" stroke-linejoin="round"/>
<path d="M16.1147 5.42578H16.858V8.39875" stroke="black" stroke-width="1.5" stroke-linecap="round" stroke-linejoin="round"/>
<path d="M23.3318 11.2827L23.852 11.8104L21.7561 13.9064" stroke="black" stroke-width="1.5" stroke-linecap="round" stroke-linejoin="round"/>
</g>
<defs>
<clipPath id="clip0_259_291">
<rect width="17.8378" height="17.8378" fill="white" transform="translate(10.9121 0.966309)"/>
</clipPath>
</defs>
</svg>
