<svg width="52" height="52" viewBox="0 0 52 52" fill="none" xmlns="http://www.w3.org/2000/svg">
<rect width="50" height="50" rx="25" fill="#D9D9D9"/>
<rect width="50" height="50" rx="25" fill="url(#paint0_linear_230_232)"/>
<path d="M10.9251 32V22H13.3651V22.89C13.7051 22.53 14.1118 22.2467 14.5851 22.04C15.0584 21.8267 15.5684 21.72 16.1151 21.72C16.8084 21.72 17.4451 21.8833 18.0251 22.21C18.6118 22.5367 19.0784 22.9733 19.4251 23.52C19.7784 22.9733 20.2451 22.5367 20.8251 22.21C21.4051 21.8833 22.0418 21.72 22.7351 21.72C23.4684 21.72 24.1318 21.9 24.7251 22.26C25.3251 22.6133 25.8018 23.09 26.1551 23.69C26.5151 24.2833 26.6951 24.9467 26.6951 25.68V32H24.2551V26.33C24.2551 25.9433 24.1584 25.59 23.9651 25.27C23.7784 24.9433 23.5251 24.6833 23.2051 24.49C22.8918 24.29 22.5384 24.19 22.1451 24.19C21.7518 24.19 21.3951 24.2867 21.0751 24.48C20.7618 24.6667 20.5084 24.92 20.3151 25.24C20.1218 25.56 20.0251 25.9233 20.0251 26.33V32H17.5851V26.33C17.5851 25.9233 17.4918 25.56 17.3051 25.24C17.1184 24.92 16.8651 24.6667 16.5451 24.48C16.2251 24.2867 15.8684 24.19 15.4751 24.19C15.0884 24.19 14.7351 24.29 14.4151 24.49C14.0951 24.6833 13.8384 24.9433 13.6451 25.27C13.4584 25.59 13.3651 25.9433 13.3651 26.33V32H10.9251ZM32.9032 32.26C31.9832 32.26 31.1432 32.0233 30.3832 31.55C29.6299 31.0767 29.0266 30.44 28.5732 29.64C28.1266 28.84 27.9032 27.9567 27.9032 26.99C27.9032 26.2633 28.0332 25.5833 28.2932 24.95C28.5532 24.31 28.9099 23.75 29.3632 23.27C29.8232 22.7833 30.3566 22.4033 30.9632 22.13C31.5699 21.8567 32.2166 21.72 32.9032 21.72C33.6832 21.72 34.3966 21.8867 35.0432 22.22C35.6966 22.5467 36.2499 22.9967 36.7032 23.57C37.1566 24.1433 37.4866 24.7967 37.6932 25.53C37.8999 26.2633 37.9466 27.03 37.8332 27.83H30.5232C30.6166 28.2033 30.7699 28.54 30.9832 28.84C31.1966 29.1333 31.4666 29.37 31.7932 29.55C32.1199 29.7233 32.4899 29.8133 32.9032 29.82C33.3299 29.8267 33.7166 29.7267 34.0632 29.52C34.4166 29.3067 34.7099 29.02 34.9432 28.66L37.4332 29.24C37.0266 30.1267 36.4199 30.8533 35.6132 31.42C34.8066 31.98 33.9032 32.26 32.9032 32.26ZM30.4432 26H35.3632C35.2899 25.6 35.1332 25.24 34.8932 24.92C34.6599 24.5933 34.3699 24.3333 34.0232 24.14C33.6766 23.9467 33.3032 23.85 32.9032 23.85C32.5032 23.85 32.1332 23.9467 31.7932 24.14C31.4532 24.3267 31.1632 24.5833 30.9232 24.91C30.6899 25.23 30.5299 25.5933 30.4432 26Z" fill="white"/>
<rect x="33" y="33" width="18" height="18" rx="9" fill="#FF2B2B"/>
<rect x="33" y="33" width="18" height="18" rx="9" stroke="#12111A" stroke-width="2"/>
<path d="M38.6293 46.5V45.205C38.9607 44.9297 39.341 44.61 39.7703 44.246C40.1997 43.8773 40.636 43.4877 41.0793 43.077C41.5227 42.6617 41.931 42.2487 42.3043 41.838C42.6777 41.4227 42.9787 41.0307 43.2073 40.662C43.4407 40.2887 43.5573 39.9643 43.5573 39.689C43.5573 39.3763 43.4803 39.0917 43.3263 38.835C43.177 38.5737 42.974 38.366 42.7173 38.212C42.4607 38.0533 42.176 37.974 41.8633 37.974C41.5507 37.974 41.2637 38.0533 41.0023 38.212C40.7457 38.366 40.538 38.5737 40.3793 38.835C40.2253 39.0917 40.1483 39.3763 40.1483 39.689H38.6923C38.6923 39.0963 38.837 38.562 39.1263 38.086C39.4203 37.6053 39.8053 37.225 40.2813 36.945C40.762 36.6603 41.2893 36.518 41.8633 36.518C42.442 36.518 42.9693 36.6603 43.4453 36.945C43.9213 37.2297 44.3017 37.6123 44.5863 38.093C44.871 38.569 45.0133 39.101 45.0133 39.689C45.0133 40.0157 44.9457 40.3517 44.8103 40.697C44.675 41.0423 44.486 41.3947 44.2433 41.754C44.0053 42.1133 43.7277 42.4773 43.4103 42.846C43.093 43.2147 42.7523 43.5833 42.3883 43.952C42.0243 44.3207 41.6533 44.6847 41.2753 45.044H45.0973V46.5H38.6293Z" fill="white"/>
<defs>
<linearGradient id="paint0_linear_230_232" x1="18.9189" y1="-1.36249e-06" x2="44.5657" y2="23.9454" gradientUnits="userSpaceOnUse">
<stop stop-color="#00E0FF"/>
<stop offset="1" stop-color="#FF8FF4"/>
</linearGradient>
</defs>
</svg>
