<svg width="22" height="23" viewBox="0 0 22 23" fill="none" xmlns="http://www.w3.org/2000/svg">
<path d="M2.5167 8.1201C2.37074 7.46262 2.39315 6.77894 2.58185 6.13244C2.77056 5.48593 3.11944 4.89754 3.59617 4.42182C4.07289 3.9461 4.66201 3.59844 5.3089 3.41109C5.9558 3.22374 6.63953 3.20276 7.2967 3.3501C7.65841 2.7844 8.1567 2.31886 8.74565 1.99638C9.3346 1.67391 9.99524 1.50488 10.6667 1.50488C11.3381 1.50488 11.9988 1.67391 12.5877 1.99638C13.1767 2.31886 13.675 2.7844 14.0367 3.3501C14.6949 3.20212 15.3798 3.22301 16.0277 3.41081C16.6756 3.59862 17.2655 3.94724 17.7425 4.42425C18.2196 4.90126 18.5682 5.49117 18.756 6.1391C18.9438 6.78703 18.9647 7.47193 18.8167 8.1301C19.3824 8.49181 19.8479 8.9901 20.1704 9.57905C20.4929 10.168 20.6619 10.8286 20.6619 11.5001C20.6619 12.1715 20.4929 12.8322 20.1704 13.4211C19.8479 14.0101 19.3824 14.5084 18.8167 14.8701C18.964 15.5273 18.9431 16.211 18.7557 16.8579C18.5684 17.5048 18.2207 18.0939 17.745 18.5706C17.2693 19.0473 16.6809 19.3962 16.0344 19.5849C15.3879 19.7736 14.7042 19.7961 14.0467 19.6501C13.6855 20.218 13.1868 20.6855 12.5968 21.0094C12.0069 21.3333 11.3447 21.5032 10.6717 21.5032C9.99867 21.5032 9.33652 21.3333 8.74657 21.0094C8.15662 20.6855 7.65793 20.218 7.2967 19.6501C6.63953 19.7974 5.9558 19.7765 5.3089 19.5891C4.66201 19.4018 4.07289 19.0541 3.59617 18.5784C3.11944 18.1027 2.77056 17.5143 2.58185 16.8678C2.39315 16.2213 2.37074 15.5376 2.5167 14.8801C1.94665 14.5193 1.47711 14.0203 1.15175 13.4293C0.82638 12.8384 0.655762 12.1747 0.655762 11.5001C0.655762 10.8255 0.82638 10.1618 1.15175 9.57088C1.47711 8.97992 1.94665 8.48085 2.5167 8.1201Z" stroke="white" stroke-width="1.25" stroke-linecap="round" stroke-linejoin="round"/>
<path d="M2.5167 8.1201C2.37074 7.46262 2.39315 6.77894 2.58185 6.13244C2.77056 5.48593 3.11944 4.89754 3.59617 4.42182C4.07289 3.9461 4.66201 3.59844 5.3089 3.41109C5.9558 3.22374 6.63953 3.20276 7.2967 3.3501C7.65841 2.7844 8.1567 2.31886 8.74565 1.99638C9.3346 1.67391 9.99524 1.50488 10.6667 1.50488C11.3381 1.50488 11.9988 1.67391 12.5877 1.99638C13.1767 2.31886 13.675 2.7844 14.0367 3.3501C14.6949 3.20212 15.3798 3.22301 16.0277 3.41081C16.6756 3.59862 17.2655 3.94724 17.7425 4.42425C18.2196 4.90126 18.5682 5.49117 18.756 6.1391C18.9438 6.78703 18.9647 7.47193 18.8167 8.1301C19.3824 8.49181 19.8479 8.9901 20.1704 9.57905C20.4929 10.168 20.6619 10.8286 20.6619 11.5001C20.6619 12.1715 20.4929 12.8322 20.1704 13.4211C19.8479 14.0101 19.3824 14.5084 18.8167 14.8701C18.964 15.5273 18.9431 16.211 18.7557 16.8579C18.5684 17.5048 18.2207 18.0939 17.745 18.5706C17.2693 19.0473 16.6809 19.3962 16.0344 19.5849C15.3879 19.7736 14.7042 19.7961 14.0467 19.6501C13.6855 20.218 13.1868 20.6855 12.5968 21.0094C12.0069 21.3333 11.3447 21.5032 10.6717 21.5032C9.99867 21.5032 9.33652 21.3333 8.74657 21.0094C8.15662 20.6855 7.65793 20.218 7.2967 19.6501C6.63953 19.7974 5.9558 19.7765 5.3089 19.5891C4.66201 19.4018 4.07289 19.0541 3.59617 18.5784C3.11944 18.1027 2.77056 17.5143 2.58185 16.8678C2.39315 16.2213 2.37074 15.5376 2.5167 14.8801C1.94665 14.5193 1.47711 14.0203 1.15175 13.4293C0.82638 12.8384 0.655762 12.1747 0.655762 11.5001C0.655762 10.8255 0.82638 10.1618 1.15175 9.57088C1.47711 8.97992 1.94665 8.48085 2.5167 8.1201Z" stroke="url(#paint0_linear_127_60)" stroke-width="1.25" stroke-linecap="round" stroke-linejoin="round"/>
<path d="M6.66669 7.5H14.6667" stroke="white" stroke-width="1.25" stroke-linecap="round" stroke-linejoin="round"/>
<path d="M6.66669 7.5H14.6667" stroke="url(#paint1_linear_127_60)" stroke-width="1.25" stroke-linecap="round" stroke-linejoin="round"/>
<path d="M6.66669 11.5H14.6667" stroke="white" stroke-width="1.25" stroke-linecap="round" stroke-linejoin="round"/>
<path d="M6.66669 11.5H14.6667" stroke="url(#paint2_linear_127_60)" stroke-width="1.25" stroke-linecap="round" stroke-linejoin="round"/>
<path d="M11.6667 16.5L6.66669 15.5H7.66669C8.72755 15.5 9.74497 15.0786 10.4951 14.3284C11.2453 13.5783 11.6667 12.5609 11.6667 11.5C11.6667 10.4391 11.2453 9.42172 10.4951 8.67157C9.74497 7.92143 8.72755 7.5 7.66669 7.5" stroke="white" stroke-width="1.25" stroke-linecap="round" stroke-linejoin="round"/>
<path d="M11.6667 16.5L6.66669 15.5H7.66669C8.72755 15.5 9.74497 15.0786 10.4951 14.3284C11.2453 13.5783 11.6667 12.5609 11.6667 11.5C11.6667 10.4391 11.2453 9.42172 10.4951 8.67157C9.74497 7.92143 8.72755 7.5 7.66669 7.5" stroke="url(#paint3_linear_127_60)" stroke-width="1.25" stroke-linecap="round" stroke-linejoin="round"/>
<defs>
<linearGradient id="paint0_linear_127_60" x1="8.22566" y1="1.50488" x2="18.4838" y2="11.0862" gradientUnits="userSpaceOnUse">
<stop stop-color="white"/>
<stop offset="0.460013" stop-color="#CCFF00"/>
<stop offset="1" stop-color="#00B412"/>
</linearGradient>
<linearGradient id="paint1_linear_127_60" x1="9.69371" y1="7.5" x2="9.82896" y2="8.51018" gradientUnits="userSpaceOnUse">
<stop stop-color="white"/>
<stop offset="0.460013" stop-color="#CCFF00"/>
<stop offset="1" stop-color="#00B412"/>
</linearGradient>
<linearGradient id="paint2_linear_127_60" x1="9.69371" y1="11.5" x2="9.82896" y2="12.5102" gradientUnits="userSpaceOnUse">
<stop stop-color="white"/>
<stop offset="0.460013" stop-color="#CCFF00"/>
<stop offset="1" stop-color="#00B412"/>
</linearGradient>
<linearGradient id="paint3_linear_127_60" x1="8.55858" y1="7.5" x2="12.3412" y2="9.46206" gradientUnits="userSpaceOnUse">
<stop stop-color="white"/>
<stop offset="0.460013" stop-color="#CCFF00"/>
<stop offset="1" stop-color="#00B412"/>
</linearGradient>
</defs>
</svg>
